Coordinates
version=1
nRows=22
nColumns=24
inDegrees=yes

Units are S.I. units (second, meters, Newtons, ...)
Angles are in degrees.

endheader
time	pelvis_tilt	pelvis_list	pelvis_rotation	pelvis_tx	pelvis_ty	pelvis_tz	hip_flexion_r	hip_adduction_r	hip_rotation_r	knee_angle_r	ankle_angle_r	subtalar_angle_r	mtp_angle_r	hip_flexion_l	hip_adduction_l	hip_rotation_l	knee_angle_l	ankle_angle_l	subtalar_angle_l	mtp_angle_l	lumbar_extension	lumbar_bending	lumbar_rotation
      3.01500000	    -11.59452370	     -1.86434342	      6.68161641	     -1.86396265	     -0.04033510	     -0.26142335	     36.13084181	     -3.34005409	    -15.43599700	    -10.44813781	     -4.03535238	     -1.55638871	     12.48254657	     -5.36408702	     -0.41831261	     -3.34521666	    -14.79952044	      6.33707392	     -2.06586428	      5.83209688	      6.42039636	      3.00296172	    -11.58497263
      3.02000000	    -11.69934768	     -2.12353376	      6.76219085	     -1.85519807	     -0.04092032	     -0.26076694	     36.14367356	     -3.07982473	    -15.46771395	    -10.91386171	     -4.62340533	     -1.63589068	     12.65122257	     -5.32119255	     -0.88761829	     -3.35208890	    -15.53792006	      5.77668191	     -1.68674054	      5.89440988	      6.73242140	      3.21687012	    -11.65775866
      3.02500000	    -11.64913070	     -2.36990355	      6.68300419	     -1.84644108	     -0.04134259	     -0.25981949	     35.99563291	     -2.69381300	    -15.23470423	    -11.29196951	     -5.98133591	     -2.38992893	     15.27470484	     -5.45036941	     -1.38220970	     -3.72747014	    -16.22403081	      4.84654985	     -1.34005538	      7.40441952	      6.85691754	      3.45004181	    -11.56628128
      3.03000000	    -11.71768496	     -2.64807977	      6.59780583	     -1.83770483	     -0.04177071	     -0.25890632	     36.01845911	     -2.29348905	    -14.87671201	    -11.86257233	     -7.02761984	     -3.07971066	     15.21390462	     -5.38907060	     -1.87994490	     -3.92873837	    -17.06231991	      4.17284014	     -0.93678686	      7.37620655	      7.11515356	      3.71360309	    -11.47973695
      3.03500000	    -11.75350228	     -2.94379898	      6.44232348	     -1.82893490	     -0.04209203	     -0.25783204	     36.01946863	     -1.81655737	    -14.39910731	    -12.46090725	     -8.17962849	     -4.05211123	     15.13070230	     -5.32667825	     -2.41077252	     -4.24659734	    -17.95659969	      3.36852631	     -0.53774910	      7.47484151	      7.33941376	      3.99353861	    -11.30383723
      3.04000000	    -11.80375931	     -3.26321219	      6.24636238	     -1.82016343	     -0.04234099	     -0.25672475	     36.05947073	     -1.29767774	    -13.85053437	    -13.11489697	     -9.36336360	     -5.19546262	     14.94424451	     -5.21106287	     -2.96435753	     -4.57012039	    -18.89996529	      2.43692400	     -0.18778244	      7.70102052	      7.58056675	      4.30950125	    -11.10967320
      3.04500000	    -11.86774128	     -3.62022389	      5.94102461	     -1.81133955	     -0.04255793	     -0.25550083	     36.14181654	     -0.67989209	    -13.18485601	    -13.82891494	    -10.48561289	     -6.42844579	     14.55360232	     -5.05257622	     -3.56461623	     -5.05148370	    -19.88894055	      1.34127998	      0.15964895	      8.36105154	      7.83492358	      4.68908224	    -10.78296013
      3.05000000	    -11.93436624	     -3.94440989	      5.77616391	     -1.80264272	     -0.04263169	     -0.25440389	     36.21708644	     -0.17050153	    -12.56171020	    -14.56898702	    -11.49169300	     -7.79734779	     14.01761467	     -4.79932681	     -4.12118341	     -5.23263513	    -20.97579296	      0.08895341	      0.33891272	      8.68406620	      8.08949582	      5.00097786	    -10.68497729
      3.05500000	    -11.96375574	     -4.37272004	      5.44798918	     -1.79376940	     -0.04264583	     -0.25304728	     36.27068058	      0.55144985	    -11.88642669	    -15.40417148	    -11.97366191	     -8.85451105	     11.58958658	     -4.59591235	     -4.83460196	     -5.75313978	    -21.97458204	     -1.81578286	      0.38486474	     11.71052053	      8.32155044	      5.44949352	    -10.37481729
      3.06000000	    -12.08127251	     -4.66867637	      5.17568367	     -1.78508209	     -0.04270495	     -0.25180570	     36.41761257	      1.09558189	    -11.18885650	    -16.21146946	    -12.62758405	    -10.09230898	     11.07579633	     -4.18644190	     -5.36273907	     -6.02268821	    -23.23656951	     -3.25933173	      0.55583879	     11.66556687	      8.61294646	      5.74805864	    -10.14669019
      3.06500000	    -12.17710458	     -4.97507813	      4.86022024	     -1.77636020	     -0.04271173	     -0.25048070	     36.52004822	      1.68664943	    -10.50795319	    -17.00400983	    -13.05976409	    -11.19380737	     10.44139670	     -3.75385140	     -5.92256829	     -6.36607332	    -24.55986512	     -4.87973034	      0.74414363	     11.86236285	      8.88113841	      6.06453781	     -9.87998618
      3.07000000	    -12.21305869	     -5.34781221	      4.54168241	     -1.76759230	     -0.04262325	     -0.24907467	     36.53782970	      2.35804572	     -9.95703675	    -17.85471133	    -12.70854201	    -11.72775474	      7.60166086	     -3.35610747	     -6.59573839	     -6.78218636	    -25.80470708	     -7.23384889	      0.64205167	     14.69440397	      9.09459326	      6.45344144	     -9.63363455
      3.07500000	    -12.28511736	     -5.59894552	      4.23974765	     -1.75896346	     -0.04253774	     -0.24777901	     36.55714998	      2.88954075	     -9.42105234	    -18.58427706	    -12.71703797	    -12.46602678	      7.36808923	     -2.83114681	     -7.09800961	     -7.02209461	    -27.26769003	     -9.12691809	      0.70367484	     14.51512199	      9.31223792	      6.72122100	     -9.38313969
      3.08000000	    -12.36990600	     -5.83787483	      3.92538567	     -1.75037846	     -0.04247758	     -0.24640511	     36.55121883	      3.42813600	     -8.91583830	    -19.26143460	    -12.51677522	    -13.08700138	      7.11055533	     -2.22994325	     -7.60431176	     -7.28453869	    -28.80118876	    -11.15151697	      0.71606865	     14.58136736	      9.53293736	      6.96839083	     -9.14641969
      3.08500000	    -12.45936658	     -6.05722378	      3.61523014	     -1.74190657	     -0.04237893	     -0.24505246	     36.51324635	      3.94441333	     -8.45424660	    -19.88751788	    -12.16185414	    -13.53280543	      6.80967242	     -1.56502791	     -8.08489263	     -7.48149875	    -30.37362081	    -13.34974261	      0.58355148	     14.92951510	      9.73701267	      7.20016359	     -8.91894786
      3.09000000	    -12.51586935	     -6.33502697	      3.33210814	     -1.73340817	     -0.04222357	     -0.24375722	     36.38804237	      4.48925254	     -8.19608979	    -20.45030166	    -11.54723970	    -13.70369205	      6.30295892	     -0.89138809	     -8.64304398	     -7.64308400	    -31.95174860	    -15.70335554	      0.36553598	     16.03024930	      9.91553603	      7.49403565	     -8.71115794
      3.09500000	    -12.48316472	     -6.57415700	      3.07710502	     -1.72505690	     -0.04188408	     -0.24255554	     36.09789499	      5.00265494	     -7.89933553	    -20.87636223	    -11.06494124	    -14.02623975	      6.35864557	     -0.25177226	     -9.12465019	     -7.66145917	    -33.61798760	    -17.76705173	      0.10495478	     15.66429002	      9.97046632	      7.75672804	     -8.52632324
      3.10000000	    -12.47706929	     -6.84603285	      2.80588637	     -1.71679752	     -0.04157891	     -0.24137963	     35.79670530	      5.54579929	     -7.65453082	    -21.23540011	    -10.51512383	    -14.23450398	      6.48031533	      0.47897602	     -9.64032186	     -7.68512100	    -35.36295938	    -19.65772592	     -0.20770086	     15.28954468	     10.03618534	      8.06624063	     -8.32589655
      3.10500000	    -12.58020691	     -6.98400857	      2.52466863	     -1.70876240	     -0.04130017	     -0.24019436	     35.60387803	      5.95258589	     -7.38313639	    -21.58630042	     -9.95209338	    -14.41376182	      6.64499209	      1.38420944	     -9.96052750	     -7.59033980	    -37.12411636	    -21.54988545	     -0.76870006	     14.84181729	     10.17581784	      8.22243309	     -8.10414250
      3.11000000	    -12.65663250	     -7.17913886	      2.26159704	     -1.70081861	     -0.04098065	     -0.23912018	     35.33080864	      6.39546750	     -7.17130362	    -21.84470742	     -9.35302979	    -14.49749635	      6.87835640	      2.32470698	    -10.32694391	     -7.45676173	    -38.94718515	    -23.19733611	     -1.43004043	     14.34514302	     10.27372873	      8.45550630	     -7.90290763
      3.11500000	    -12.74066027	     -7.37463292	      2.00565746	     -1.69301414	     -0.04063401	     -0.23811659	     35.03507183	      6.82321832	     -6.99259745	    -22.04636353	     -8.75225620	    -14.51339845	      7.17985619	      3.33399524	    -10.67081625	     -7.29665598	    -40.81126952	    -24.64726452	     -2.24697122	     13.76444386	     10.35682866	      8.69232371	     -7.72225005
      3.12000000	    -12.83313247	     -7.58547071	      1.76108995	     -1.68529505	     -0.04025170	     -0.23720210	     34.70866331	      7.24828511	     -6.85120773	    -22.17517569	     -8.16225788	    -14.48138689	      7.53610266	      4.40378426	    -10.99852795	     -7.08290128	    -42.69746515	    -25.89846086	     -3.22741090	     13.10740155	     10.43705050	      8.95006544	     -7.53218710
